<svg xmlns="http://www.w3.org/2000/svg" xmlns:xlink="http://www.w3.org/1999/xlink" viewBox="0 0 1156.818 708.636"><defs><style>.a{fill:#fff;}.b{fill:#d2d5d9;}.c{fill:#e8e9ea;}.d{fill:#efefef;}.e{fill:#ebedef;}.f{fill:#cdcdcd;}.g{fill:#dfe0e1;}.h{fill:#d177f6;}.i{fill:#e1dfe1;}.j{fill:#08dc79;}.k{fill:#fcd13f;}.l{fill:#e4e4e4;}.m{filter:url(#a);}</style><filter id="a" x="0" y="0" width="1156.818" height="708.636" filterUnits="userSpaceOnUse"><feOffset dy="5" input="SourceAlpha"/><feGaussianBlur stdDeviation="12.5" result="b"/><feFlood flood-color="#3f4766" flood-opacity="0.102"/><feComposite operator="in" in2="b"/><feComposite in="SourceGraphic"/></filter></defs><g transform="translate(37.5 32.5)"><g class="m" transform="matrix(1, 0, 0, 1, -37.5, -32.5)"><rect class="a" width="1081.818" height="633.636" rx="15" transform="translate(37.5 32.5)"/></g><path class="b" d="M15,0H99.939a0,0,0,0,1,0,0V633.636a0,0,0,0,1,0,0H15a15,15,0,0,1-15-15V15A15,15,0,0,1,15,0Z"/><rect class="c" width="359.576" height="633.636" transform="translate(99.939)"/><rect class="d" width="628.485" height="633.636" transform="translate(459.515)"/><ellipse class="e" cx="27.303" cy="27.303" rx="27.303" ry="27.303" transform="translate(22.667 29.879)"/><rect class="e" width="27.818" height="27.818" rx="8" transform="translate(36.061 128.788)"/><rect class="e" width="27.818" height="27.818" rx="8" transform="translate(36.061 186.485)"/><rect class="e" width="27.818" height="27.818" rx="8" transform="translate(36.061 244.182)"/><rect class="e" width="27.818" height="27.818" rx="8" transform="translate(36.061 567.697)"/><rect class="e" width="27.818" height="27.818" rx="8" transform="translate(36.061 510)"/><rect class="f" width="144.242" height="39.152" rx="8" transform="translate(136 38.121)"/><rect class="f" width="103.03" height="39.152" rx="8" transform="translate(306 38.121)"/><rect class="f" width="144.242" height="39.152" rx="8" transform="translate(136 384.303)"/><g transform="translate(136 128.788)"><ellipse class="g" cx="27.303" cy="27.303" rx="27.303" ry="27.303"/><rect class="g" width="103.03" height="28.848" rx="8" transform="translate(66.97 13.394)"/></g><g transform="translate(136 204)"><ellipse class="h" cx="27.303" cy="27.303" rx="27.303" ry="27.303" transform="translate(0 0)"/><rect class="i" width="103.03" height="28.848" rx="8" transform="translate(66.97 13.394)"/></g><g transform="translate(136 279.212)"><ellipse class="g" cx="27.303" cy="27.303" rx="27.303" ry="27.303" transform="translate(0 0)"/><rect class="g" width="103.03" height="28.848" rx="8" transform="translate(66.97 13.394)"/></g><ellipse class="j" cx="27.303" cy="27.303" rx="27.303" ry="27.303" transform="translate(136 455.394)"/><rect class="g" width="163.818" height="28.848" rx="8" transform="translate(202.97 468.788)"/><ellipse class="k" cx="27.303" cy="27.303" rx="27.303" ry="27.303" transform="translate(136 529.576)"/><rect class="g" width="136" height="28.848" rx="8" transform="translate(203.156 542.97)"/><rect class="f" width="144.242" height="39.152" rx="8" transform="translate(486.303 38.121)"/><rect class="f" width="103.03" height="39.152" rx="8" transform="translate(656.303 38.121)"/><ellipse class="l" cx="8.758" cy="8.758" rx="8.758" ry="8.758" transform="translate(1003.515 16.485)"/><ellipse class="l" cx="8.758" cy="8.758" rx="8.758" ry="8.758" transform="translate(1028.242 15.455)"/><ellipse class="l" cx="8.758" cy="8.758" rx="8.758" ry="8.758" transform="translate(1052.97 16.485)"/><ellipse class="g" cx="27.303" cy="27.303" rx="27.303" ry="27.303" transform="translate(486.303 231.818)"/><rect class="g" width="104.061" height="12.364" rx="6.182" transform="translate(554.303 242.121)"/><rect class="g" width="163.818" height="12.364" rx="6.182" transform="translate(554.303 262.727)"/><rect class="g" width="63.879" height="12.364" rx="6.182" transform="translate(672.788 242.121)"/><ellipse class="g" cx="27.303" cy="27.303" rx="27.303" ry="27.303" transform="translate(486.303 396.667)"/><rect class="g" width="104.061" height="12.364" rx="6.182" transform="translate(554.303 406.97)"/><rect class="g" width="163.818" height="12.364" rx="6.182" transform="translate(554.303 427.576)"/><rect class="g" width="63.879" height="12.364" rx="6.182" transform="translate(672.788 406.97)"/><ellipse class="g" cx="27.303" cy="27.303" rx="27.303" ry="27.303" transform="translate(998.364 317.333)"/><rect class="g" width="104.061" height="12.364" rx="6.182" transform="translate(805.697 327.636)"/><rect class="g" width="163.818" height="12.364" rx="6.182" transform="translate(824.242 348.242)"/><rect class="g" width="63.879" height="12.364" rx="6.182" transform="translate(924.182 327.636)"/><ellipse class="g" cx="27.303" cy="27.303" rx="27.303" ry="27.303" transform="translate(998.364 497.636)"/><rect class="g" width="104.061" height="12.364" rx="6.182" transform="translate(805.697 507.94)"/><rect class="g" width="163.818" height="12.364" rx="6.182" transform="translate(824.242 528.545)"/><rect class="g" width="63.879" height="12.364" rx="6.182" transform="translate(924.182 507.94)"/><ellipse class="l" cx="8.758" cy="8.758" rx="8.758" ry="8.758" transform="translate(1003.515 16.485)"/></g></svg>