<svg xmlns="http://www.w3.org/2000/svg" viewBox="0 0 1920 1136.899"><defs><style>.a{fill:#f8f8f8;}.b{fill:#e5e5e5;}.c{fill:#edebeb;}.d{fill:#fff;}</style></defs><g transform="translate(0 27)"><path class="a" d="M-1.254,1057.689S162.367,932.97,470.768,932.97s327.232,218.8,848.152,218.8,599.826-159.124,599.826-159.124V41.87h-1920Z" transform="translate(1.254 -41.87)"/><path class="b" d="M-1.254,1019.249s163.621-120,472.022-120S798,1109.769,1318.92,1109.769s599.826-153.1,599.826-153.1V41.87h-1920Z" transform="translate(1.254 -41.87)"/><path class="c" d="M-1.254,992.707s163.621-116.74,472.022-116.74,327.232,204.8,848.152,204.8,599.826-148.945,599.826-148.945V41.87h-1920Z" transform="translate(1.254 -41.87)"/><path class="d" d="M-1.254,992.707s163.621-116.74,472.022-116.74,327.232,204.8,848.152,204.8,599.826-148.945,599.826-148.945V41.87h-1920Z" transform="translate(1.254 -68.87)"/></g></svg>